<?xml version="1.0" encoding="utf-8"?>
<!-- Generator: Adobe Illustrator 19.0.0, SVG Export Plug-In . SVG Version: 6.00 Build 0)  -->
<svg version="1.1" id="图层_1" xmlns="http://www.w3.org/2000/svg" xmlns:xlink="http://www.w3.org/1999/xlink" x="0px" y="0px"
	 width="45px" height="45px" viewBox="17 -16 45 45" style="enable-background:new 17 -16 45 45;" xml:space="preserve">
<style type="text/css">
	.st0{fill:#E5E5E6;}
	.st1{fill:#D9D9D9;}
</style>
<g>
	<path id="XMLID_1055_" class="st0" d="M50.5,2.9H28.4c-0.6,0-1.1-0.5-1.1-1.1V0.9c0-0.6,0.5-1.1,1.1-1.1h22.1
		c0.6,0,1.1,0.5,1.1,1.1v0.9C51.6,2.4,51.1,2.9,50.5,2.9z"/>
	<path id="XMLID_1054_" class="st0" d="M46.8,8.8H28.4c-0.6,0-1.1-0.5-1.1-1.1V6.9c0-0.6,0.5-1.1,1.1-1.1h18.4
		c0.6,0,1.1,0.5,1.1,1.1v0.9C47.9,8.3,47.4,8.8,46.8,8.8z"/>
	<path id="XMLID_1076_" class="st1" d="M45.4,11.4c-0.6,0-1,0.4-1,1v11.1l12.1-12.1H45.4z"/>
	<path id="XMLID_1074_" class="st1" d="M25.9,20.9c-0.4,0-0.8-0.4-0.8-0.8v-27c0-0.4,0.4-0.8,0.8-0.8h27.2c0.4,0,0.8,0.4,0.8,0.8V14
		l2.6-2.6V-9.5c0-0.6-0.4-1-1-1h-32c-0.6,0-1,0.4-1,1v32c0,0.6,0.4,1,1,1h20.8l2.6-2.6H25.9z"/>
</g>
</svg>
