<?xml version="1.0" encoding="utf-8"?>
<!-- Generator: Adobe Illustrator 19.0.0, SVG Export Plug-In . SVG Version: 6.00 Build 0)  -->
<svg version="1.1" id="图层_1" xmlns="http://www.w3.org/2000/svg" xmlns:xlink="http://www.w3.org/1999/xlink" x="0px" y="0px"
	 width="45px" height="45px" viewBox="17 -16 45 45" style="enable-background:new 17 -16 45 45;" xml:space="preserve">
<style type="text/css">
	.st0{fill:#E5E5E6;}
</style>
<g id="XMLID_928_">
	<path id="XMLID_931_" class="st0" d="M55.5-10.5h-32c-0.6,0-1,0.4-1,1v32c0,0.6,0.4,1,1,1h32c0.6,0,1-0.4,1-1v-32
		C56.5-10,56-10.5,55.5-10.5z M53.9,20.1c0,0.4-0.4,0.8-0.8,0.8H25.9c-0.4,0-0.8-0.4-0.8-0.8V-3.5c0-0.4,0.4-0.8,0.8-0.8h27.2
		c0.4,0,0.8,0.4,0.8,0.8V20.1z"/>
	<path id="XMLID_927_" class="st0" d="M39.4,6.1H28.4c-0.6,0-1.1-0.5-1.1-1.1v-6c0-0.6,0.5-1.1,1.1-1.1h11.1c0.6,0,1.1,0.5,1.1,1.1
		v6C40.5,5.6,40,6.1,39.4,6.1z"/>
	<path id="XMLID_929_" class="st0" d="M50.5,1h-8.1c-0.6,0-1.1-0.5-1.1-1.1V-1c0-0.6,0.5-1.1,1.1-1.1h8.1c0.6,0,1.1,0.5,1.1,1.1v0.9
		C51.6,0.5,51.1,1,50.5,1z"/>
	<path id="XMLID_930_" class="st0" d="M50.5,5.6h-8.1c-0.6,0-1.1-0.5-1.1-1.1V3.6c0-0.6,0.5-1.1,1.1-1.1h8.1c0.6,0,1.1,0.5,1.1,1.1
		v0.9C51.6,5.1,51.1,5.6,50.5,5.6z"/>
	<path id="XMLID_934_" class="st0" d="M50.5,11.9H28.4c-0.6,0-1.1-0.5-1.1-1.1V9.9c0-0.6,0.5-1.1,1.1-1.1h22.1
		c0.6,0,1.1,0.5,1.1,1.1v0.9C51.6,11.4,51.1,11.9,50.5,11.9z"/>
	<path id="XMLID_935_" class="st0" d="M50.5,17.8H28.4c-0.6,0-1.1-0.5-1.1-1.1v-0.9c0-0.6,0.5-1.1,1.1-1.1h22.1
		c0.6,0,1.1,0.5,1.1,1.1v0.9C51.6,17.3,51.1,17.8,50.5,17.8z"/>
</g>
</svg>
