<?xml version="1.0" encoding="utf-8"?>
<!-- Generator: Adobe Illustrator 19.0.0, SVG Export Plug-In . SVG Version: 6.00 Build 0)  -->
<svg version="1.1" id="图层_1" xmlns="http://www.w3.org/2000/svg" xmlns:xlink="http://www.w3.org/1999/xlink" x="0px" y="0px"
	 width="17.9px" height="17.9px" viewBox="-22 -2.4 17.9 17.9" style="enable-background:new -22 -2.4 17.9 17.9;"
	 xml:space="preserve">
<style type="text/css">
	.st0{fill:#D9D9D9;}
	.st1{fill:#0079C4;}
</style>
<g id="XMLID_603_">
	<path id="XMLID_608_" class="st0" d="M-10.4,6.5c0,1.5-1.2,2.6-2.6,2.6c-1.4,0-2.6-1.2-2.6-2.6c0-1.3,1-2.6,2.5-2.6
		C-11.4,3.9-10.4,5.3-10.4,6.5z"/>
	<path id="XMLID_607_" class="st1" d="M-15.8,3.6c-0.6-0.4-1.2-0.6-1.9-0.7c-1.3-0.3-2.4,0-3.3,1.1c-0.4,0.6-0.7,1.2-0.9,1.9
		c-0.2,0.9,0,1.8,0.5,2.6c0.8,1.2,2.1,1.3,3.1,0.4c0.5-0.4,1-0.8,1.5-0.9c-0.2-0.5-0.3-1-0.3-1.6C-17.1,5.5-16.6,4.4-15.8,3.6z"/>
	<path id="XMLID_606_" class="st1" d="M-10.2,9.4C-9.6,9.8-8.8,10-8,10.2c1,0.2,1.8,0,2.6-0.7c0.9-0.8,1.4-1.9,1.4-3.1
		c0-1-0.3-1.9-1.2-2.5C-6,3.2-7.1,3.3-7.7,3.9c-0.5,0.5-1,0.8-1.6,1C-9.1,5.5-9,6-9,6.5C-9,7.7-9.5,8.7-10.2,9.4z"/>
	<path id="XMLID_605_" class="st1" d="M-15.4-1.6c-1,0.8-0.9,2.2-0.2,2.9c0.5,0.4,0.8,1,1,1.6c0.4-0.2,0.9-0.3,1.4-0.3
		c1.3,0,2.3,0.5,3,1.2c0.3-0.6,0.6-1.2,0.7-1.8c0.2-0.9,0.2-1.8-0.4-2.6c-0.6-0.8-1.4-1.3-2.3-1.5C-13.3-2.6-14.4-2.4-15.4-1.6z"/>
	<path id="XMLID_604_" class="st1" d="M-15.9,9.3c-0.4,0.7-0.7,1.4-0.8,2.2c-0.2,1.2,0.2,2.2,1.2,3c0.3,0.3,0.7,0.5,1.1,0.6
		c1.3,0.5,2.6,0.5,3.7-0.4c1-0.8,1-2.2,0.2-2.9c-0.5-0.4-0.8-1-1-1.5c-0.5,0.2-1,0.3-1.6,0.3C-14.2,10.5-15.2,10-15.9,9.3z"/>
</g>
</svg>
