<?xml version="1.0" encoding="utf-8"?>
<!-- Generator: Adobe Illustrator 19.0.0, SVG Export Plug-In . SVG Version: 6.00 Build 0)  -->
<svg version="1.1" id="图层_1" xmlns="http://www.w3.org/2000/svg" xmlns:xlink="http://www.w3.org/1999/xlink" x="0px" y="0px"
	 width="17.9px" height="17.9px" viewBox="-22 -2.4 17.9 17.9" style="enable-background:new -22 -2.4 17.9 17.9;"
	 xml:space="preserve">
<style type="text/css">
	.st0{fill:#D9D9D9;}
	.st1{fill:#0079C4;}
</style>
<g id="XMLID_746_">
	<path id="XMLID_769_" class="st0" d="M-13,9.1c1.5,0,2.6-1.2,2.6-2.6c0-1.4-1.2-2.6-2.6-2.6c-1.3,0-2.6,1-2.6,2.5
		C-15.7,8.2-14.2,9.2-13,9.1z"/>
	<path id="XMLID_768_" class="st1" d="M-15.9,3.7c-0.4-0.6-0.6-1.2-0.7-1.9c-0.3-1.3,0-2.4,1.1-3.3c0.6-0.4,1.2-0.7,1.9-0.9
		c0.9-0.2,1.8,0,2.6,0.5c1.2,0.8,1.3,2.1,0.4,3.1c-0.4,0.5-0.8,1-0.9,1.5c-0.5-0.2-1-0.3-1.6-0.3C-14.1,2.5-15.1,2.9-15.9,3.7z"/>
	<path id="XMLID_767_" class="st1" d="M-10.2,9.3c0.4,0.7,0.7,1.4,0.8,2.2c0.2,1,0,1.8-0.7,2.6c-0.8,0.9-1.9,1.4-3.1,1.4
		c-1,0-1.9-0.3-2.5-1.2c-0.6-0.7-0.5-1.9,0.1-2.5c0.5-0.5,0.8-1,1-1.6c0.5,0.2,1.1,0.3,1.6,0.3C-11.9,10.5-10.9,10.1-10.2,9.3z"/>
	<path id="XMLID_764_" class="st1" d="M-21.2,4.1c0.8-1,2.2-0.9,2.9-0.2c0.4,0.5,1,0.8,1.6,1C-16.9,5.4-17,5.8-17,6.4
		c0,1.3,0.5,2.3,1.2,3c-0.6,0.3-1.2,0.6-1.8,0.7c-0.9,0.2-1.8,0.2-2.6-0.4c-0.8-0.6-1.3-1.4-1.5-2.3C-22.2,6.2-22,5.1-21.2,4.1z"/>
	<path id="XMLID_747_" class="st1" d="M-10.2,3.6C-9.6,3.2-8.8,3-8,2.9C-6.8,2.7-5.8,3-5.1,4c0.3,0.3,0.5,0.7,0.6,1.1
		C-3.9,6.5-4,7.7-4.9,8.9c-0.8,1-2.2,1-2.9,0.2c-0.4-0.5-1-0.8-1.5-1C-9.1,7.6-9,7-9,6.5C-9,5.3-9.5,4.4-10.2,3.6z"/>
</g>
</svg>
