<?xml version="1.0" encoding="utf-8"?>
<!-- Generator: Adobe Illustrator 19.0.0, SVG Export Plug-In . SVG Version: 6.00 Build 0)  -->
<svg version="1.1" id="图层_1" xmlns="http://www.w3.org/2000/svg" xmlns:xlink="http://www.w3.org/1999/xlink" x="0px" y="0px"
	 width="45px" height="45px" viewBox="0 0 45 45" style="enable-background:new 0 0 45 45;" xml:space="preserve">
<style type="text/css">
	.st0{fill:#00B6ED;}
	.st1{fill:#D9D9D9;}
</style>
<rect id="XMLID_242_" x="21.1" y="9.3" class="st0" width="10.4" height="16.2"/>
<rect id="XMLID_2152_" x="6.1" y="28.2" class="st0" width="10.4" height="6.5"/>
<g id="XMLID_1806_">
	<path id="XMLID_1818_" class="st1" d="M5.3,37.1h12c0.5,0,0.9-0.4,0.9-0.9V8.9c0-0.5-0.4-0.9-0.9-0.9h-12c-0.5,0-0.9,0.4-0.9,0.9
		v27.2C4.4,36.6,4.8,37.1,5.3,37.1z M13.9,30.2h2.4v2.4h-2.4V30.2z M10.1,30.2h2.4v2.4h-2.4V30.2z M6.3,30.2h2.4v2.4H6.3V30.2z"/>
	<path id="XMLID_1814_" class="st1" d="M34.1,8.9v27.2c0,0.5,0.4,1,1,1h5c0.5,0,1-0.4,1-1V8.9c0-0.5-0.4-1-1-1h-5
		C34.5,7.9,34.1,8.4,34.1,8.9z M36.7,36h-1.5V22.9h1.5V36z M39.9,36h-1.5V22.9h1.5V36z"/>
	<path id="XMLID_1807_" class="st1" d="M20.1,8.9v27.2c0,0.5,0.4,1,1,1h10c0.5,0,1-0.4,1-1V8.9c0-0.5-0.4-1-1-1h-10
		C20.5,7.9,20.1,8.4,20.1,8.9z M22,10h8.1v11.1H22V10z M23,24.6h-1.5v-1.5H23V24.6z M25.6,24.6h-1.5v-1.5h1.5V24.6z M28.1,24.6h-1.5
		v-1.5h1.5V24.6z M30.7,24.6h-1.5v-1.5h1.5V24.6z"/>
</g>
</svg>
